<svg xmlns="http://www.w3.org/2000/svg" viewBox="0 0 36 36" fill="none" aria-hidden="true">
  <title>Cat toolbar icon</title>
  <mask id="cat-toolbar-mask" maskUnits="userSpaceOnUse" x="0" y="0" width="36" height="36">
    <rect width="36" height="36" fill="black"/>
    <g fill="white">
      <rect x="7" y="11" width="22" height="15" rx="3"/>
      <path d="M9.2 14 L10.9 8.8 Q11.6 6.8 12.4 6.2 H12.6 Q13.4 6.8 14.1 8.8 L15.8 14 Z"/>
      <path d="M20.2 14 L21.9 8.8 Q22.6 6.8 23.4 6.2 H23.6 Q24.4 6.8 25.1 8.8 L26.8 14 Z"/>
    </g>
    <g fill="black">
      <path d="M12 16 L16 18 L12 20 Z"/>
      <path d="M24 16 L20 18 L24 20 Z"/>
      <rect x="16.5" y="20" width="3" height="2.5" rx="1.25"/>
      <rect x="17" y="22.5" width="2" height="3.5" rx="1"/>
      <rect x="14.5" y="25" width="3.5" height="1.5" rx="0.75"/>
      <rect x="18" y="25" width="3.5" height="1.5" rx="0.75"/>
      <rect x="7" y="19" width="6" height="1.5" rx="0.75"/>
      <rect x="6.5" y="22" width="6.5" height="1.5" rx="0.75"/>
      <rect x="7" y="25" width="6" height="1.5" rx="0.75"/>
      <rect x="23" y="19" width="6" height="1.5" rx="0.75"/>
      <rect x="23" y="22" width="6.5" height="1.5" rx="0.75"/>
      <rect x="23" y="25" width="6" height="1.5" rx="0.75"/>
    </g>
  </mask>
  <rect width="36" height="36" fill="currentColor" mask="url(#cat-toolbar-mask)"/>
</svg>
